<?xml version="1.0" encoding="UTF-8"?>
<svg xmlns="http://www.w3.org/2000/svg" xmlns:xlink="http://www.w3.org/1999/xlink" viewBox="0 0 142.21 52.4">
  <defs>
    <style>.cls-1{fill:none;clip-rule:evenodd;}.cls-2,.cls-5{fill:#fff;}.cls-3{clip-path:url(#clip-path);}.cls-4{fill:#0e0c31;}.cls-4,.cls-5{fill-rule:evenodd;}</style>
    <clipPath id="clip-path">
      <path class="cls-1" d="M6.31,8.45V46.52H1.43V0L6.31,2.82,33.13,18.3V36.09L14.78,46.69h0L9.9,49.51h0V22.14h4.88V41.05l13.47-7.77V21.12Z"></path>
    </clipPath>
  </defs>
  <g id="katman_2" data-name="katman 2">
    <g id="katman_1-2" data-name="katman 1">
      <path class="cls-2" d="M123.7,36.15v3.46h-.62V36.15Zm-.62-1.08h.62V36l-.62-.62Zm-4.16,3.17a1.4,1.4,0,0,1-.36,1,1.3,1.3,0,0,1-1,.37,1.59,1.59,0,0,1-.72-.17,1.63,1.63,0,0,1-.57-.48l.3-.48a1.55,1.55,0,0,0,.47.39,1.07,1.07,0,0,0,.51.13.7.7,0,0,0,.54-.21.9.9,0,0,0,.19-.6V35.64h-1.61v-.57h2.24Zm-8-2.65a1.69,1.69,0,0,0-.88.24,1.71,1.71,0,0,0-.65.63,1.66,1.66,0,0,0-.24.88,1.69,1.69,0,0,0,.24.88,1.81,1.81,0,0,0,.65.64,1.72,1.72,0,0,0,1.75,0,1.73,1.73,0,0,0,.87-1.52,1.75,1.75,0,0,0-.23-.88,1.79,1.79,0,0,0-1.51-.87Zm0-.56a2.44,2.44,0,0,1,1.2.31,2.26,2.26,0,0,1,1.19,2,2.29,2.29,0,0,1-.32,1.17,2.2,2.2,0,0,1-.87.84,2.48,2.48,0,0,1-2.4,0,2.2,2.2,0,0,1-.87-.84,2.29,2.29,0,0,1-.32-1.17,2.23,2.23,0,0,1,.32-1.17,2.28,2.28,0,0,1,.86-.83A2.5,2.5,0,0,1,110.89,35Zm-8.35,0h.62v4h2v.56h-2.61Zm-6.24.52a1.69,1.69,0,0,0-.88.24,1.71,1.71,0,0,0-.65.63,1.66,1.66,0,0,0-.24.88,1.69,1.69,0,0,0,.24.88,1.81,1.81,0,0,0,.65.64,1.72,1.72,0,0,0,1.75,0A1.73,1.73,0,0,0,98,37.34a1.75,1.75,0,0,0-.23-.88,1.79,1.79,0,0,0-1.51-.87Zm0-.56a2.44,2.44,0,0,1,1.2.31,2.26,2.26,0,0,1,1.19,2,2.29,2.29,0,0,1-.32,1.17,2.2,2.2,0,0,1-.87.84,2.48,2.48,0,0,1-2.4,0,2.2,2.2,0,0,1-.87-.84,2.29,2.29,0,0,1-.32-1.17,2.23,2.23,0,0,1,.32-1.17,2.28,2.28,0,0,1,.86-.83A2.5,2.5,0,0,1,96.29,35Zm-6.87,0H90v4.54h-.63l-2.6-3.51v3.51h-.62V35.07h.63l2.6,3.53Zm-7,4.54h-.75L80.1,37.52l-.84.91v1.18h-.62V35.07h.62v2.55l2.32-2.55h.75l-1.8,2Zm-11-4.54h3.16v.57H72.06V37h2.26v.56H72.06v1.45h2.61v.56H71.43Zm-7.22,0h3.55v.57H66.29v4h-.62v-4H64.21Z"></path>
      <g class="cls-3">
        <rect class="cls-2" x="1.43" width="31.7" height="49.51"></rect>
      </g>
      <path class="cls-4" d="M9.9,24.08V22.14h4.88v2.74a5,5,0,0,1-1.73.3,5,5,0,0,1-3.15-1.1"></path>
      <path class="cls-5" d="M12.34,18.59a1.62,1.62,0,0,1,0,3.23,1.62,1.62,0,1,1,0-3.23m0-2.26A3.87,3.87,0,1,1,8.46,20.2,3.87,3.87,0,0,1,12.34,16.33Z"></path>
      <path class="cls-4" d="M6.31,45v1.51H1.43V44.21a5,5,0,0,1,1.73-.3A5,5,0,0,1,6.31,45"></path>
      <path class="cls-5" d="M3.87,46.91a1.62,1.62,0,1,1-1.61,1.61,1.61,1.61,0,0,1,1.61-1.61m0-2.26A3.88,3.88,0,1,1,0,48.52,3.88,3.88,0,0,1,3.87,44.65Z"></path>
      <path class="cls-2" d="M124.44,30.6a1.34,1.34,0,0,1-2,.12,1.33,1.33,0,0,1-.4-1,1.17,1.17,0,0,1,.29-.82l6.84-9.21a3.57,3.57,0,0,1,1.27-1.05,3.64,3.64,0,0,1,1.69-.41,3.54,3.54,0,0,1,1.6.37,3.24,3.24,0,0,1,1.24,1l6.85,9.15a2.2,2.2,0,0,1,.28.44,1.27,1.27,0,0,1,.11.52,1.32,1.32,0,0,1-.39,1,1.34,1.34,0,0,1-1,.39,1.27,1.27,0,0,1-1.07-.53l-6.56-8.76c-.14-.15-.3-.32-.5-.5a.92.92,0,0,0-.6-.26.94.94,0,0,0-.61.26,3.33,3.33,0,0,0-.46.5Zm5.94-2.53a1.75,1.75,0,0,1,3-1.24,1.79,1.79,0,0,1,0,2.48,1.75,1.75,0,0,1-3-1.24Zm-36-3.1A7.12,7.12,0,0,1,94,27.13a6.73,6.73,0,0,1-1,2,5.69,5.69,0,0,1-1.64,1.45,4.21,4.21,0,0,1-2.16.56H76.36a4.16,4.16,0,0,1-2-.63A5.9,5.9,0,0,1,72.77,29a6.84,6.84,0,0,1-1-2A7.1,7.1,0,0,1,71.46,25a6.78,6.78,0,0,1,.36-2.15,6.36,6.36,0,0,1,1-2,5.41,5.41,0,0,1,1.64-1.45,4.16,4.16,0,0,1,2.17-.57H89.49a4.07,4.07,0,0,1,2.05.64,5.45,5.45,0,0,1,1.54,1.45,6.66,6.66,0,0,1,1,1.94A6.84,6.84,0,0,1,94.39,25Zm-5.77,3.44a3.2,3.2,0,0,0,1.57-.35,2.93,2.93,0,0,0,1-.86,2.87,2.87,0,0,0,.48-1.12,4.8,4.8,0,0,0,0-2.22,2.82,2.82,0,0,0-.48-1.11,2.72,2.72,0,0,0-1-.86,3.09,3.09,0,0,0-1.57-.35H77.24a3.07,3.07,0,0,0-1.59.35,2.78,2.78,0,0,0-1,.86,2.82,2.82,0,0,0-.48,1.11,4.8,4.8,0,0,0,0,2.22,2.87,2.87,0,0,0,.48,1.12,3,3,0,0,0,1,.86,3.18,3.18,0,0,0,1.59.35ZM68.65,25a7.1,7.1,0,0,1-.34,2.11,6.84,6.84,0,0,1-1,2,5.75,5.75,0,0,1-1.54,1.45,4.16,4.16,0,0,1-2,.63H47.05a1.3,1.3,0,0,1-1-.39,1.33,1.33,0,0,1-.4-1V20.18a1.31,1.31,0,0,1,.4-.95,1.28,1.28,0,0,1,1-.4H63.47a4.12,4.12,0,0,1,2.16.57,5.41,5.41,0,0,1,1.64,1.45,6.61,6.61,0,0,1,1,2A7.06,7.06,0,0,1,68.65,25Zm47.87-1h0V22.49a.93.93,0,0,0-.29-.62,1.24,1.24,0,0,0-.69-.33H100.78a.92.92,0,0,0-.59.18.78.78,0,0,0-.28.44v1.46h5.74a31.9,31.9,0,0,1,4.48.28,15.84,15.84,0,0,1,3.62.92l.34.13h1.45a1.24,1.24,0,0,0,.69-.33A.93.93,0,0,0,116.52,24Zm2.71-1.34v1.28a3.43,3.43,0,0,1-.31,1.47,3.82,3.82,0,0,1-.85,1.18,3.41,3.41,0,0,1-.71.54A12.5,12.5,0,0,1,119,29a1.27,1.27,0,0,1,.28.76,1.35,1.35,0,0,1-1.35,1.35,1.19,1.19,0,0,1-.51-.11,2.36,2.36,0,0,1-.42-.28l-.26-.28a10.85,10.85,0,0,0-2.38-2.26,10,10,0,0,0-2.57-1.24,12.59,12.59,0,0,0-2.86-.52c-1-.06-2.08-.1-3.23-.1H99.91v3.44a1.3,1.3,0,0,1-.41,1,1.33,1.33,0,0,1-.94.39,1.3,1.3,0,0,1-1-.39,1.33,1.33,0,0,1-.4-1V22.52A3.72,3.72,0,0,1,97.51,21a4,4,0,0,1,.79-1.15,3.58,3.58,0,0,1,1.1-.75,3.08,3.08,0,0,1,1.24-.27h14.7a3.74,3.74,0,0,1,1.49.3,4,4,0,0,1,1.24.8,3.82,3.82,0,0,1,.85,1.18,3.43,3.43,0,0,1,.31,1.47ZM48.4,21.54v6.87H62.87a3.21,3.21,0,0,0,1.58-.35,3,3,0,0,0,1-.86,2.87,2.87,0,0,0,.48-1.12,4.8,4.8,0,0,0,0-2.22,2.89,2.89,0,0,0-1.45-2,3.11,3.11,0,0,0-1.58-.35Z"></path>
    </g>
  </g>
</svg>
