<?xml version="1.0" encoding="UTF-8"?>
<svg xmlns="http://www.w3.org/2000/svg" xmlns:xlink="http://www.w3.org/1999/xlink" id="katman_2" data-name="katman 2" viewBox="0 0 142.21 52.4">
  <defs>
    <style> .cls-1 { fill: url(#Adsız_degrade_10); } .cls-2 { clip-path: url(#clippath); } .cls-3, .cls-4 { fill: #031a2d; } .cls-5 { clip-rule: evenodd; fill: none; } .cls-6 { fill: #3b759b; } .cls-6, .cls-7, .cls-4 { fill-rule: evenodd; } .cls-7 { fill: #163854; } </style>
    <clipPath id="clippath">
      <path class="cls-5" d="m6.31,8.45v38.07H1.43V0l4.88,2.82,26.82,15.48v17.8l-18.35,10.6h0s-4.88,2.82-4.88,2.82h0v-27.37h4.88v18.91l13.47-7.78v-12.16L6.31,8.45Z"></path>
    </clipPath>
    <linearGradient id="Adsız_degrade_10" data-name="Adsız degrade 10" x1="17.28" y1="49.51" x2="17.28" y2="10.61" gradientUnits="userSpaceOnUse">
      <stop offset="0" stop-color="#102b43"></stop>
      <stop offset="1" stop-color="#3b759b"></stop>
    </linearGradient>
  </defs>
  <g id="katman_1" data-name="katman 1">
    <path class="cls-3" d="m123.7,36.15v3.46h-.62v-3.46h.62Zm-.62-1.08h.62v.88l-.62-.62v-.26Zm-4.16,3.17c0,.45-.12.79-.36,1.04-.24.24-.57.37-.99.37-.26,0-.49-.06-.71-.17-.22-.11-.41-.27-.58-.48l.31-.48c.14.17.3.3.47.39.17.09.34.13.51.13.23,0,.41-.07.54-.21.13-.14.19-.34.19-.6v-2.58h-1.6v-.57h2.23v3.17Zm-8.02-2.65c-.32,0-.61.08-.88.23-.27.16-.49.37-.65.63-.16.27-.24.56-.24.88s.08.61.24.88c.16.27.38.48.65.64.27.16.56.24.88.24s.61-.08.87-.24c.27-.16.48-.37.64-.64.16-.27.24-.56.24-.88s-.08-.61-.24-.88-.37-.48-.64-.63c-.27-.16-.56-.23-.87-.23Zm0-.56c.44,0,.84.1,1.2.31.37.2.65.48.87.83.21.35.32.74.32,1.16s-.11.81-.32,1.17c-.21.36-.5.64-.87.84-.37.21-.77.31-1.2.31s-.84-.1-1.2-.31c-.37-.21-.65-.49-.87-.84-.21-.36-.32-.75-.32-1.17s.11-.81.32-1.16c.21-.35.5-.63.86-.83.36-.2.77-.31,1.21-.31Zm-8.35.04h.62v3.98h1.99v.56h-2.61v-4.54Zm-6.24.52c-.32,0-.61.08-.88.23-.27.16-.49.37-.65.63-.16.27-.24.56-.24.88s.08.61.24.88c.16.27.38.48.65.64.27.16.56.24.88.24s.61-.08.87-.24c.27-.16.48-.37.64-.64.16-.27.24-.56.24-.88s-.08-.61-.24-.88c-.16-.27-.37-.48-.64-.63-.27-.16-.56-.23-.87-.23Zm0-.56c.44,0,.84.1,1.2.31.37.2.65.48.87.83.21.35.32.74.32,1.16s-.11.81-.32,1.17c-.21.36-.5.64-.87.84-.37.21-.77.31-1.2.31s-.84-.1-1.2-.31c-.37-.21-.65-.49-.87-.84-.21-.36-.32-.75-.32-1.17s.11-.81.32-1.16c.21-.35.5-.63.86-.83.36-.2.77-.31,1.21-.31Zm-6.87.04h.62v4.54h-.63l-2.6-3.52v3.52h-.62v-4.54h.63l2.6,3.52v-3.52Zm-6.97,4.54h-.75l-1.6-2.1-.84.91v1.19h-.62v-4.54h.62v2.55l2.32-2.55h.75l-1.8,1.96,1.91,2.58Zm-11.01-4.54h3.15v.56h-2.53v1.4h2.26v.56h-2.26v1.45h2.61v.56h-3.23v-4.54Zm-7.23,0h3.55v.57h-1.47v3.97h-.62v-3.97h-1.46v-.57Z"></path>
    <g class="cls-2">
      <rect class="cls-1" x="1.43" width="31.7" height="49.51"></rect>
    </g>
    <path class="cls-7" d="m9.9,24.08v-1.94h4.88v2.74c-.54.19-1.12.3-1.72.3-1.19,0-2.29-.41-3.16-1.1"></path>
    <path class="cls-6" d="m12.34,18.59c.89,0,1.61.72,1.61,1.61s-.72,1.61-1.61,1.61-1.61-.72-1.61-1.61.72-1.61,1.61-1.61m0-2.26c2.14,0,3.87,1.73,3.87,3.87s-1.73,3.87-3.87,3.87-3.87-1.73-3.87-3.87,1.73-3.87,3.87-3.87Z"></path>
    <path class="cls-4" d="m6.31,45.01v1.52H1.43v-2.32c.54-.19,1.12-.3,1.72-.3,1.19,0,2.29.41,3.16,1.1"></path>
    <path class="cls-7" d="m3.87,46.91c.89,0,1.61.72,1.61,1.61s-.72,1.61-1.61,1.61-1.61-.72-1.61-1.61.72-1.61,1.61-1.61m0-2.26c2.14,0,3.87,1.73,3.87,3.87s-1.73,3.87-3.87,3.87-3.87-1.73-3.87-3.87,1.73-3.87,3.87-3.87Z"></path>
    <path class="cls-3" d="m124.44,30.6c-.28.34-.63.51-1.04.51-.38,0-.69-.13-.96-.39-.26-.26-.39-.58-.39-.96,0-.34.09-.61.28-.82l6.84-9.21c.32-.43.74-.78,1.27-1.06.53-.27,1.09-.41,1.69-.41.56,0,1.1.12,1.6.37.51.24.92.58,1.24,1.01l6.84,9.15c.11.13.21.28.28.44.08.16.11.33.11.52,0,.38-.13.69-.39.96-.26.26-.58.39-.96.39-.45,0-.81-.18-1.07-.54l-6.56-8.76c-.13-.15-.3-.31-.49-.49-.2-.18-.4-.27-.61-.27s-.41.09-.61.27c-.2.18-.35.34-.46.49l-6.62,8.79Zm5.94-2.53c0-.49.17-.9.51-1.24.34-.34.75-.51,1.24-.51s.9.17,1.24.51c.34.34.51.75.51,1.24s-.17.9-.51,1.24c-.34.34-.75.51-1.24.51s-.9-.17-1.24-.51c-.34-.34-.51-.75-.51-1.24Zm-35.99-3.1c0,.71-.12,1.43-.35,2.15-.23.72-.58,1.38-1.03,1.97-.45.59-.99,1.07-1.63,1.45-.64.38-1.36.56-2.17.56h-12.84c-.77-.04-1.46-.25-2.06-.63-.6-.38-1.11-.87-1.53-1.45-.42-.58-.75-1.23-.97-1.94-.23-.71-.34-1.42-.34-2.11s.12-1.43.35-2.15c.23-.72.58-1.38,1.03-1.97.45-.59,1-1.07,1.63-1.45.64-.38,1.36-.56,2.17-.56h12.84c.77.04,1.46.25,2.06.63.6.38,1.11.87,1.54,1.45.42.58.75,1.23.97,1.94.23.71.34,1.42.34,2.11Zm-5.77,3.44c.64,0,1.16-.12,1.58-.35.41-.23.74-.52.97-.86.23-.34.39-.71.48-1.11.08-.4.13-.77.13-1.11s-.04-.71-.13-1.11c-.08-.4-.24-.77-.48-1.11-.23-.34-.56-.62-.97-.86-.41-.23-.94-.35-1.58-.35h-11.38c-.66,0-1.19.12-1.59.35-.4.23-.72.52-.96.86-.24.34-.39.71-.48,1.11-.08.4-.13.77-.13,1.11s.04.71.13,1.11c.08.4.24.77.48,1.11.23.34.55.62.96.86.4.23.93.35,1.59.35h11.38Zm-19.97-3.44c0,.69-.11,1.4-.34,2.11-.23.71-.55,1.36-.97,1.94-.42.58-.93,1.07-1.54,1.45-.6.38-1.29.6-2.06.63h-16.7c-.38,0-.69-.13-.96-.39-.26-.26-.39-.58-.39-.96v-9.58c0-.38.13-.69.39-.96.26-.26.58-.39.96-.39h16.42c.81,0,1.53.19,2.17.56.64.38,1.18.86,1.63,1.45.45.59.79,1.25,1.03,1.97.23.72.35,1.44.35,2.15Zm47.88-1h0v-1.48c-.02-.24-.12-.45-.29-.62-.2-.19-.43-.3-.69-.34h-14.76c-.24,0-.44.06-.59.18-.15.12-.24.27-.28.44v1.46h5.75c1.65,0,3.14.09,4.48.28,1.33.19,2.54.49,3.62.92.11.04.22.09.34.14h1.45c.26-.04.49-.15.69-.34.18-.17.28-.39.29-.64Zm2.7-1.34v1.28c0,.53-.1,1.01-.31,1.46-.21.45-.49.84-.84,1.18-.22.21-.46.39-.72.54.58.55,1.11,1.19,1.59,1.9.19.24.28.5.28.76,0,.38-.13.69-.39.96-.26.26-.58.39-.96.39-.19,0-.36-.04-.51-.11-.15-.08-.29-.17-.42-.28-.11-.11-.2-.21-.25-.28-.77-.96-1.56-1.71-2.38-2.25-.82-.54-1.68-.96-2.58-1.24-.9-.28-1.85-.46-2.86-.52-1-.07-2.08-.1-3.22-.1h-5.75v3.44c0,.38-.14.69-.41.96-.27.26-.59.39-.94.39-.38,0-.69-.13-.96-.39-.26-.26-.39-.58-.39-.96v-7.24c0-.56.1-1.07.31-1.52.21-.45.47-.84.79-1.15.32-.32.69-.57,1.1-.75.41-.18.83-.27,1.24-.27h14.7c.53,0,1.02.1,1.49.3.47.2.88.46,1.24.8.36.34.64.73.84,1.18.21.45.31.94.31,1.46v.05Zm-70.83-1.09v6.87h14.48c.64,0,1.16-.12,1.58-.35.41-.23.74-.52.97-.86.23-.34.39-.71.48-1.11.08-.4.13-.77.13-1.11s-.04-.71-.13-1.11c-.08-.4-.24-.77-.48-1.11-.23-.34-.56-.62-.97-.86-.41-.23-.94-.35-1.58-.35h-14.48Z"></path>
  </g>
</svg>
